<?xml version="1.0" encoding="UTF-8"?>
<svg xmlns="http://www.w3.org/2000/svg" width="1600" height="964" viewBox="0 0 1600 964">
  <title>VKT erinomainen taitotaso: tietovirrat</title>
  <defs>
    <style>
    text { font-family: Helvetica, Arial, sans-serif; fill: #1f2937; }
    .tausta { fill: #ffffff; }
    .otsikko { font-size: 24px; font-weight: bold; }
    .alaotsikko { font-size: 13px; fill: #4b5563; }
    .kaista { fill: #f8fafc; stroke: #e2e8f0; stroke-width: 1; }
    .kaistan-nimi { font-size: 12px; font-weight: bold; fill: #64748b; letter-spacing: 0.5px; }
    .laatikko rect { stroke-width: 1.5; }
    .nimi { font-size: 14px; font-weight: bold; }
    .lisatieto { font-size: 11px; fill: #4b5563; }
    .kitu rect { fill: #dbeafe; stroke: #1e40af; stroke-width: 3; }
    .kios rect { fill: #ede9fe; stroke: #6d28d9; stroke-width: 2.5; }
    .oph rect { fill: #eff6ff; stroke: #60a5fa; }
    .ulkoinen rect { fill: #fff7ed; stroke: #ea580c; }
    .infra rect { fill: #f0fdf4; stroke: #16a34a; }
    .toimija rect { fill: #f3f4f6; stroke: #6b7280; }
    .ryhma { fill: #f5f9ff; stroke: #60a5fa; stroke-width: 1.5; stroke-dasharray: 4 3; }
    .ryhman-nimi { font-size: 14px; font-weight: bold; fill: #1e3a8a; }
    .nuoli path { fill: none; stroke: #374151; stroke-width: 1.6; }
    .pull path { stroke-dasharray: 7 4; }
    .nuolen-teksti rect { fill: #ffffff; fill-opacity: 0.92; }
    .nuolen-teksti text { font-size: 11.5px; }
    .ei-kaytossa { opacity: 0.5; }
    .huom { font-size: 13px; font-style: italic; fill: #92400e; }
    .huom-tausta { fill: #fffbeb; stroke: #f59e0b; stroke-width: 1; }
    .selite { font-size: 11.5px; }
    </style>
    <marker id="karki" viewBox="0 0 10 10" refX="9" refY="5" markerWidth="8" markerHeight="8" orient="auto-start-reverse">
      <path d="M 0,0 L 10,5 L 0,10 z" fill="#374151"/>
    </marker>
  </defs>
  <rect class="tausta" x="0" y="0" width="1600" height="964"/>
  <g id="otsikko">
    <text class="otsikko" x="24" y="34">VKT erinomainen taitotaso: tietovirrat</text>
    <text class="alaotsikko" x="24" y="54">Kielitutkintorekisterin (kitu) ja KIOS-ilmoittautumisjärjestelmän integraatiot · tilanne 7.10.2026</text>
  </g>
  <g id="selite">
    <g class="laatikko kitu">
      <rect x="700" y="14" width="22" height="14" rx="3"/>
    </g>
    <text class="selite" x="728" y="25">Kielitutkintorekisteri</text>
    <g class="laatikko kios">
      <rect x="882.825" y="14" width="22" height="14" rx="3"/>
    </g>
    <text class="selite" x="910.825" y="25">KIOS</text>
    <g class="laatikko oph">
      <rect x="956.975" y="14" width="22" height="14" rx="3"/>
    </g>
    <text class="selite" x="984.975" y="25">Muu OPH-palvelu</text>
    <g class="laatikko ulkoinen">
      <rect x="1097.5375" y="14" width="22" height="14" rx="3"/>
    </g>
    <text class="selite" x="1125.5375" y="25">Ulkoinen palvelu</text>
    <g class="laatikko toimija">
      <rect x="1244.1374999999998" y="14" width="22" height="14" rx="7"/>
    </g>
    <text class="selite" x="1272.1374999999998" y="25">Käyttäjä</text>
    <g class="laatikko infra">
      <rect x="1342.4374999999998" y="14" width="22" height="14" rx="3"/>
    </g>
    <text class="selite" x="1370.4374999999998" y="25">AWS-infra</text>
    <g class="nuoli push">
      <path d="M 700,44 L 740,44" marker-end="url(#karki)"/>
    </g>
    <text class="selite" x="748" y="48">lähettäjä työntää (push)</text>
    <g class="nuoli pull">
      <path d="M 922.9,44 L 962.9,44" marker-end="url(#karki)"/>
    </g>
    <text class="selite" x="970.9" y="48">vastaanottaja hakee (pull)</text>
    <text class="selite" x="1157.875" y="48">nuoli osoittaa tiedon kulkusuunnan</text>
  </g>
  <g id="kaista-toimijat">
    <rect class="kaista" x="20" y="70" width="230" height="680" rx="10"/>
    <text class="kaistan-nimi" x="34" y="90">KÄYTTÄJÄT</text>
  </g>
  <g id="kaista-ilmoittautuminen">
    <rect class="kaista" x="270" y="70" width="650" height="680" rx="10"/>
    <text class="kaistan-nimi" x="284" y="90">ILMOITTAUTUMINEN</text>
  </g>
  <g id="kaista-rekisteri">
    <rect class="kaista" x="940" y="70" width="640" height="680" rx="10"/>
    <text class="kaistan-nimi" x="954" y="90">ARVIOINTI, REKISTERI JA JULKAISU</text>
  </g>
  <g id="kansalainen" class="laatikko toimija">
    <rect x="50" y="120" width="170" height="56" rx="28"/>
    <text class="nimi" x="135" y="144.5" text-anchor="middle">Kansalainen</text>
    <text class="lisatieto" x="135" y="161.5" text-anchor="middle">tutkinnon suorittaja</text>
  </g>
  <g id="paakayttaja" class="laatikko toimija">
    <rect x="50" y="290" width="170" height="56" rx="28"/>
    <text class="nimi" x="135" y="314.5" text-anchor="middle">OPH-pääkäyttäjä</text>
    <text class="lisatieto" x="135" y="331.5" text-anchor="middle">KIOS · virkailija-CAS</text>
  </g>
  <g id="virkailija" class="laatikko toimija">
    <rect x="50" y="470" width="170" height="56" rx="28"/>
    <text class="nimi" x="135" y="494.5" text-anchor="middle">OPH-virkailija</text>
    <text class="lisatieto" x="135" y="511.5" text-anchor="middle">kitu · virkailija-CAS</text>
  </g>
  <g id="suomifi" class="laatikko ulkoinen">
    <rect x="290" y="100" width="180" height="56" rx="8"/>
    <text class="nimi" x="380" y="124.5" text-anchor="middle">Suomi.fi-tunnistus</text>
    <text class="lisatieto" x="380" y="141.5" text-anchor="middle">cas-oppija</text>
  </g>
  <g id="paytrail" class="laatikko ulkoinen">
    <rect x="500" y="100" width="180" height="56" rx="8"/>
    <text class="nimi" x="590" y="124.5" text-anchor="middle">Paytrail</text>
    <text class="lisatieto" x="590" y="141.5" text-anchor="middle">verkkomaksut</text>
  </g>
  <g id="viestinvalitys" class="laatikko oph">
    <rect x="710" y="100" width="190" height="56" rx="8"/>
    <text class="nimi" x="805" y="124.5" text-anchor="middle">Viestinvälitys</text>
    <text class="lisatieto" x="805" y="141.5" text-anchor="middle">vahvistukset, kuitit</text>
  </g>
  <g id="kios" class="laatikko kios">
    <rect x="430" y="300" width="280" height="90" rx="8"/>
    <text class="nimi" x="570" y="334" text-anchor="middle">KIOS</text>
    <text class="lisatieto" x="570" y="351" text-anchor="middle">VKT-ilmoittautumisjärjestelmä</text>
    <text class="lisatieto" x="570" y="366" text-anchor="middle">OPH:n tutkintotilaisuudet</text>
  </g>
  <g id="s3" class="laatikko infra">
    <rect x="470" y="560" width="200" height="56" rx="8"/>
    <text class="nimi" x="570" y="584.5" text-anchor="middle">S3</text>
    <text class="lisatieto" x="570" y="601.5" text-anchor="middle">liitteet</text>
  </g>
  <g id="kitu" class="laatikko kitu">
    <rect x="1040" y="320" width="300" height="120" rx="8"/>
    <text class="nimi" x="1190" y="369" text-anchor="middle">Kielitutkintorekisteri</text>
    <text class="lisatieto" x="1190" y="386" text-anchor="middle">kitu</text>
    <text class="lisatieto" x="1190" y="401" text-anchor="middle">arvosanojen kirjaus</text>
  </g>
  <g id="koski" class="laatikko oph">
    <rect x="1040" y="140" width="200" height="60" rx="8"/>
    <text class="nimi" x="1140" y="174" text-anchor="middle">KOSKI</text>
  </g>
  <g id="oma-opintopolku" class="laatikko oph">
    <rect x="1360" y="140" width="190" height="60" rx="8"/>
    <text class="nimi" x="1455" y="166.5" text-anchor="middle">Oma Opintopolku</text>
    <text class="lisatieto" x="1455" y="183.5" text-anchor="middle">kansalainen näkee suorituksen</text>
  </g>
  <g id="kansalainen-kios" class="nuoli push">
    <path d="M 220,160 L 430,322" marker-end="url(#karki)"/>
    <g class="nuolen-teksti">
      <rect x="188" y="192" width="161" height="34" rx="3"/>
      <text x="268" y="206" text-anchor="middle">
        <tspan x="268" y="206">paikan varaus tai jonoon,</tspan>
        <tspan x="268" y="220">osakokeiden valinta</tspan>
      </text>
    </g>
  </g>
  <g id="suomifi-kios" class="nuoli push">
    <path d="M 380,156 L 470,300" marker-end="url(#karki)"/>
    <g class="nuolen-teksti">
      <rect x="375" y="214" width="107" height="20" rx="3"/>
      <text x="428" y="228" text-anchor="middle">
        <tspan x="428" y="228">tunnistautuminen</tspan>
      </text>
    </g>
  </g>
  <g id="kios-paytrail" class="nuoli push">
    <path d="M 590,300 L 590,156" marker-end="url(#karki)" marker-start="url(#karki)"/>
    <g class="nuolen-teksti">
      <rect x="567" y="218" width="46" height="20" rx="3"/>
      <text x="590" y="232" text-anchor="middle">
        <tspan x="590" y="232">maksut</tspan>
      </text>
    </g>
  </g>
  <g id="kios-viestinvalitys" class="nuoli push">
    <path d="M 680,300 L 790,156" marker-end="url(#karki)"/>
    <g class="nuolen-teksti">
      <rect x="697" y="218" width="76" height="20" rx="3"/>
      <text x="735" y="232" text-anchor="middle">
        <tspan x="735" y="232">sähköpostit</tspan>
      </text>
    </g>
  </g>
  <g id="paakayttaja-kios" class="nuoli push">
    <path d="M 220,318 L 430,345" marker-end="url(#karki)"/>
    <g class="nuolen-teksti">
      <rect x="227" y="348" width="167" height="48" rx="3"/>
      <text x="310" y="362" text-anchor="middle">
        <tspan x="310" y="362">tutkintotilaisuudet,</tspan>
        <tspan x="310" y="376">maksuttomuuden hyväksyntä,</tspan>
        <tspan x="310" y="390">maksulinkit jonosta</tspan>
      </text>
    </g>
  </g>
  <g id="kios-s3" class="nuoli push">
    <path d="M 570,390 L 570,560" marker-end="url(#karki)" marker-start="url(#karki)"/>
    <g class="nuolen-teksti">
      <rect x="575" y="448" width="155" height="48" rx="3"/>
      <text x="580" y="462" text-anchor="start">
        <tspan x="580" y="462">maksuttomuuden todisteet</tspan>
        <tspan x="580" y="476">selain lataa suoraan</tspan>
        <tspan x="580" y="490">(esiallekirjoitettu URL)</tspan>
      </text>
    </g>
  </g>
  <g id="kios-kitu" class="nuoli push">
    <path d="M 710,360 L 1040,360" marker-end="url(#karki)"/>
    <g class="nuolen-teksti">
      <rect x="758" y="308" width="233" height="48" rx="3"/>
      <text x="875" y="322" text-anchor="middle">
        <tspan x="875" y="322">ilmoittautuneet osakokeet,</tspan>
        <tspan x="875" y="336">ilman arvosanoja</tspan>
        <tspan x="875" y="350">PUT /api/vkt/kios · CAS · tunneittain</tspan>
      </text>
    </g>
  </g>
  <g id="kios-hakee-koskesta" class="nuoli pull">
    <path d="M 1040,168 L 700,300" marker-end="url(#karki)"/>
    <g class="nuolen-teksti">
      <rect x="768" y="212" width="203" height="34" rx="3"/>
      <text x="870" y="226" text-anchor="middle">
        <tspan x="870" y="226">koulutustiedot maksuttomuuden</tspan>
        <tspan x="870" y="240">perusteeksi · KIOS hakee · Basic</tspan>
      </text>
    </g>
  </g>
  <g id="virkailija-kitu" class="nuoli push">
    <path d="M 135,526 L 135,700 L 1190,700 L 1190,440" marker-end="url(#karki)"/>
    <g class="nuolen-teksti">
      <rect x="510" y="680" width="300" height="20" rx="3"/>
      <text x="660" y="694" text-anchor="middle">
        <tspan x="660" y="694">osakokeiden arvosanojen kirjaus · virkailija-CAS</tspan>
      </text>
    </g>
  </g>
  <g id="kitu-koski" class="nuoli push">
    <path d="M 1140,320 L 1140,200" marker-end="url(#karki)"/>
    <g class="nuolen-teksti">
      <rect x="1145" y="236" width="233" height="48" rx="3"/>
      <text x="1150" y="250" text-anchor="start">
        <tspan x="1150" y="250">suoritukset, kun kaikki</tspan>
        <tspan x="1150" y="264">osakokeet on arvioitu</tspan>
        <tspan x="1150" y="278">PUT /koski/api/oppija · Basic · öisin</tspan>
      </text>
    </g>
  </g>
  <g id="koski-oma-opintopolku" class="nuoli push">
    <path d="M 1240,170 L 1360,170" marker-end="url(#karki)"/>
    <g class="nuolen-teksti">
      <rect x="1271" y="136" width="58" height="20" rx="3"/>
      <text x="1300" y="150" text-anchor="middle">
        <tspan x="1300" y="150">julkaisu</tspan>
      </text>
    </g>
  </g>
  <g id="kaista-yhteiset">
    <rect class="kaista" x="20" y="770" width="1560" height="124" rx="10"/>
    <text class="kaistan-nimi" x="34" y="790">YHTEISET OPH-PALVELUT</text>
  </g>
  <g id="onr" class="laatikko oph">
    <rect x="34.0" y="804" width="500" height="76" rx="8"/>
    <text class="nimi" x="48.0" y="828">Oppijanumerorekisteri</text>
    <text class="lisatieto" x="48.0" y="850">KIOS: henkilöiden luonti ja nimitietojen päivitys</text>
    <text class="lisatieto" x="48.0" y="866">kitu: master-OID (haku)</text>
  </g>
  <g id="koodisto" class="laatikko oph">
    <rect x="550.0" y="804" width="500" height="76" rx="8"/>
    <text class="nimi" x="564.0" y="828">Koodistopalvelu</text>
    <text class="lisatieto" x="564.0" y="850">kitu: koodistot validointiin</text>
  </g>
  <g id="otuva" class="laatikko oph">
    <rect x="1066.0" y="804" width="500" height="76" rx="8"/>
    <text class="nimi" x="1080.0" y="828">Otuva</text>
    <text class="lisatieto" x="1080.0" y="850">virkailijoiden CAS-kirjautuminen</text>
    <text class="lisatieto" x="1080.0" y="866">CAS-tiketti KIOS → kitu, ONR ja KOSKI</text>
  </g>
  <g id="huom">
    <rect class="huom-tausta" x="20" y="914" width="610" height="30" rx="6"/>
    <text class="huom" x="34" y="934">Huom: kitu ei lähetä VKT-tietoja takaisin KIOSiin. Arvosanat kirjataan vasta kitussa.</text>
  </g>
</svg>
